<svg width="33" height="32" viewBox="0 0 33 32" fill="none" xmlns="http://www.w3.org/2000/svg">
<g clip-path="url(#clip0_4600_34101)">
<g filter="url(#filter0_d_4600_34101)">
<path d="M3.16797 29.3346V27.3346C3.92352 27.268 4.52908 27.0291 4.98464 26.618C5.44019 26.2069 6.25686 26.0013 7.43464 26.0013C8.61241 26.0013 9.4513 26.2235 9.9513 26.668C10.4513 27.1124 11.1235 27.3346 11.968 27.3346C12.8124 27.3346 13.4846 27.1124 13.9846 26.668C14.4846 26.2235 15.3235 26.0013 16.5013 26.0013C17.6791 26.0013 18.5235 26.2235 19.0346 26.668C19.5457 27.1124 20.2124 27.3346 21.0346 27.3346C21.8791 27.3346 22.5513 27.0569 23.0513 26.5013C23.5513 25.9457 24.3902 25.668 25.568 25.668C26.7457 25.668 27.5624 25.9291 28.018 26.4513C28.4735 26.9735 29.0791 27.268 29.8346 27.3346V29.3346C28.9013 29.3346 28.1402 29.0569 27.5513 28.5013C26.9624 27.9457 26.3013 27.668 25.568 27.668C24.8346 27.668 24.1902 27.9457 23.6346 28.5013C23.0791 29.0569 22.2124 29.3346 21.0346 29.3346C19.8569 29.3346 18.9902 29.1124 18.4346 28.668C17.8791 28.2235 17.2346 28.0013 16.5013 28.0013C15.768 28.0013 15.1235 28.2235 14.568 28.668C14.0124 29.1124 13.1457 29.3346 11.968 29.3346C10.7902 29.3346 9.92352 29.1124 9.36797 28.668C8.81241 28.2235 8.16797 28.0013 7.43464 28.0013C6.7013 28.0013 6.04019 28.2235 5.4513 28.668C4.86241 29.1124 4.1013 29.3346 3.16797 29.3346ZM11.968 23.0013C10.7902 23.0013 9.92352 22.7791 9.36797 22.3346C8.81241 21.8902 8.16797 21.668 7.43464 21.668C6.7013 21.668 6.04019 21.8902 5.4513 22.3346C4.86241 22.7791 4.1013 23.0013 3.16797 23.0013V21.0013C3.92352 20.9346 4.52908 20.6957 4.98464 20.2846C5.44019 19.8735 6.25686 19.668 7.43464 19.668C7.67908 19.668 7.92908 19.6846 8.18464 19.718C8.44019 19.7513 8.66797 19.8013 8.86797 19.868L7.16797 13.7013L5.1013 16.268L3.53464 15.0013L13.5346 2.66797L28.368 8.33464L27.6346 10.2013L24.568 9.03464L27.4346 19.7346C27.8346 19.9569 28.2402 20.2235 28.6513 20.5346C29.0624 20.8457 29.4569 20.9902 29.8346 20.968V23.0013C28.9013 23.0013 28.1402 22.7235 27.5513 22.168C26.9624 21.6124 26.3013 21.3346 25.568 21.3346C24.8346 21.3346 24.1902 21.6124 23.6346 22.168C23.0791 22.7235 22.2124 23.0013 21.0346 23.0013C19.8569 23.0013 18.9902 22.7791 18.4346 22.3346C17.8791 21.8902 17.2346 21.668 16.5013 21.668C15.768 21.668 15.1235 21.8902 14.568 22.3346C14.0124 22.7791 13.1457 23.0013 11.968 23.0013ZM11.968 21.0013C12.6569 21.0013 13.2735 20.8069 13.818 20.418C14.3624 20.0291 14.9902 19.7902 15.7013 19.7013L14.468 15.168L19.0013 13.968L20.8346 21.0013C21.6791 21.0902 22.3735 20.8457 22.918 20.268C23.4624 19.6902 24.2346 19.3791 25.2346 19.3346L22.2346 8.13463L14.2013 5.03464L8.73464 11.768L11.2013 20.9013C11.3569 20.9457 11.4902 20.9735 11.6013 20.9846C11.7124 20.9957 11.8346 21.0013 11.968 21.0013Z" fill="url(#paint0_linear_4600_34101)"/>
</g>
</g>
<defs>
<filter id="filter0_d_4600_34101" x="1.16797" y="2.66797" width="30.668" height="30.668" filterUnits="userSpaceOnUse" color-interpolation-filters="sRGB">
<feFlood flood-opacity="0" result="BackgroundImageFix"/>
<feColorMatrix in="SourceAlpha" type="matrix" values="0 0 0 0 0 0 0 0 0 0 0 0 0 0 0 0 0 0 127 0" result="hardAlpha"/>
<feOffset dy="2"/>
<feGaussianBlur stdDeviation="1"/>
<feComposite in2="hardAlpha" operator="out"/>
<feColorMatrix type="matrix" values="0 0 0 0 0 0 0 0 0 0 0 0 0 0 0 0 0 0 0.25 0"/>
<feBlend mode="normal" in2="BackgroundImageFix" result="effect1_dropShadow_4600_34101"/>
<feBlend mode="normal" in="SourceGraphic" in2="effect1_dropShadow_4600_34101" result="shape"/>
</filter>
<linearGradient id="paint0_linear_4600_34101" x1="16.5013" y1="2.66797" x2="16.5013" y2="29.3346" gradientUnits="userSpaceOnUse">
<stop stop-color="#2A79FF"/>
<stop offset="1" stop-color="#35B4F9"/>
</linearGradient>
<clipPath id="clip0_4600_34101">
<rect width="32" height="32" fill="white" transform="translate(0.5)"/>
</clipPath>
</defs>
</svg>
