<svg width="20" height="20" viewBox="0 0 20 20" fill="none" xmlns="http://www.w3.org/2000/svg">
<path d="M5.57292 11.041C5.3669 11.041 5.1655 10.9799 4.9942 10.8655C4.8229 10.751 4.68938 10.5883 4.61054 10.398C4.5317 10.2076 4.51107 9.99819 4.55127 9.79613C4.59146 9.59407 4.69067 9.40846 4.83635 9.26278C4.98203 9.1171 5.16763 9.01789 5.3697 8.9777C5.57176 8.9375 5.78121 8.95813 5.97155 9.03697C6.16189 9.11581 6.32457 9.24933 6.43903 9.42063C6.55349 9.59193 6.61458 9.79333 6.61458 9.99935C6.61458 10.2756 6.50484 10.5406 6.30949 10.7359C6.11414 10.9313 5.84918 11.041 5.57292 11.041ZM8.95833 9.99935C8.95833 10.2054 9.01943 10.4068 9.13389 10.5781C9.24835 10.7494 9.41103 10.8829 9.60137 10.9617C9.79171 11.0406 10.0012 11.0612 10.2032 11.021C10.4053 10.9808 10.5909 10.8816 10.7366 10.7359C10.8822 10.5902 10.9815 10.4046 11.0217 10.2026C11.0618 10.0005 11.0412 9.79106 10.9624 9.60072C10.8835 9.41038 10.75 9.24769 10.5787 9.13323C10.4074 9.01877 10.206 8.95768 10 8.95768C9.72373 8.95768 9.45878 9.06743 9.26343 9.26278C9.06808 9.45813 8.95833 9.72308 8.95833 9.99935ZM13.3854 9.99935C13.3854 10.2054 13.4465 10.4068 13.561 10.5781C13.6754 10.7494 13.8381 10.8829 14.0285 10.9617C14.2188 11.0406 14.4282 11.0612 14.6303 11.021C14.8324 10.9808 15.018 10.8816 15.1637 10.7359C15.3093 10.5902 15.4085 10.4046 15.4487 10.2026C15.4889 10.0005 15.4683 9.79106 15.3895 9.60072C15.3106 9.41038 15.1771 9.24769 15.0058 9.13323C14.8345 9.01877 14.6331 8.95768 14.4271 8.95768C14.1508 8.95768 13.8859 9.06743 13.6905 9.26278C13.4952 9.45813 13.3854 9.72308 13.3854 9.99935Z" fill="#2ED9FF"/>
</svg>
